<svg viewBox="0 0 130 130" xmlns="http://www.w3.org/2000/svg" xmlns:xlink="http://www.w3.org/1999/xlink" width="130.000000" height="130.000000" fill="none" customFrame="#000000">
	<defs>
		<linearGradient id="paint_linear_0" x1="0" x2="129.999969" y1="0" y2="129.999969" gradientUnits="userSpaceOnUse">
			<stop stop-color="rgb(255,115,45)" offset="0.00499924878" stop-opacity="1" />
			<stop stop-color="rgb(232,53,17)" offset="0.501534343" stop-opacity="1" />
			<stop stop-color="rgb(246,66,30)" offset="1" stop-opacity="1" />
		</linearGradient>
	</defs>
	<g id="Versatile">
		<rect id="矩形 2" width="130.000000" height="130.000000" x="0.000000" y="0.000000" rx="28.889999" fill="rgb(248,88,53)" />
		<rect id="矩形 2" width="130.000000" height="130.000000" x="0.000000" y="0.000000" rx="28.889999" fill="url(#paint_linear_0)" />
		<path id="矩形 5624" d="M26.1807 38.583L57.6876 38.583C65.688 38.583 72.1738 45.0686 72.1738 53.0692L72.1738 54.0057L40.6668 54.0057C32.6664 54.0057 26.1807 47.52 26.1807 39.5196L26.1807 38.583Z" fill="rgb(255,255,255)" fill-rule="evenodd" />
		<path id="矩形 5625" d="M0 0L31.507 0C39.5074 0 45.9931 6.48572 45.9931 14.4862L45.9931 15.4228L14.4862 15.4228C6.48572 15.4228 0 8.93714 0 0.936605L0 0Z" fill="rgb(255,255,255)" fill-rule="evenodd" transform="matrix(-0.5,0.866026,-0.866026,-0.5,103.82,40.9336)" />
		<path id="矩形 5626" d="M0 0L31.507 0C39.5074 0 45.9931 6.48572 45.9931 14.4862L45.9931 15.4228L14.4862 15.4228C6.48572 15.4228 0 8.93714 0 0.936605L0 0Z" fill="rgb(255,255,255)" fill-rule="evenodd" transform="matrix(-0.5,-0.866026,0.866026,-0.5,58.7378,106.837)" />
	</g>
</svg>
