<svg width="192" height="192" viewBox="0 0 192 192" fill="none" xmlns="http://www.w3.org/2000/svg">
  <rect width="192" height="192" rx="16" fill="white"/>
  <rect x="16" y="16" width="48" height="48" fill="#111111"/>
  <rect x="24" y="24" width="32" height="32" fill="white"/>
  <rect x="32" y="32" width="16" height="16" fill="#111111"/>
  <rect x="128" y="16" width="48" height="48" fill="#111111"/>
  <rect x="136" y="24" width="32" height="32" fill="white"/>
  <rect x="144" y="32" width="16" height="16" fill="#111111"/>
  <rect x="16" y="128" width="48" height="48" fill="#111111"/>
  <rect x="24" y="136" width="32" height="32" fill="white"/>
  <rect x="32" y="144" width="16" height="16" fill="#111111"/>
  <rect x="80" y="16" width="8" height="8" fill="#111111"/>
  <rect x="96" y="16" width="8" height="8" fill="#111111"/>
  <rect x="80" y="32" width="8" height="8" fill="#111111"/>
  <rect x="96" y="32" width="8" height="8" fill="#111111"/>
  <rect x="72" y="48" width="8" height="8" fill="#111111"/>
  <rect x="88" y="48" width="8" height="8" fill="#111111"/>
  <rect x="104" y="48" width="8" height="8" fill="#111111"/>
  <rect x="80" y="64" width="8" height="8" fill="#111111"/>
  <rect x="96" y="64" width="8" height="8" fill="#111111"/>
  <rect x="64" y="80" width="8" height="8" fill="#111111"/>
  <rect x="80" y="80" width="8" height="8" fill="#111111"/>
  <rect x="96" y="80" width="8" height="8" fill="#111111"/>
  <rect x="112" y="80" width="8" height="8" fill="#111111"/>
  <rect x="128" y="80" width="8" height="8" fill="#111111"/>
  <rect x="144" y="80" width="8" height="8" fill="#111111"/>
  <rect x="72" y="96" width="8" height="8" fill="#111111"/>
  <rect x="88" y="96" width="8" height="8" fill="#111111"/>
  <rect x="104" y="96" width="8" height="8" fill="#111111"/>
  <rect x="120" y="96" width="8" height="8" fill="#111111"/>
  <rect x="136" y="96" width="8" height="8" fill="#111111"/>
  <rect x="152" y="96" width="8" height="8" fill="#111111"/>
  <rect x="64" y="112" width="8" height="8" fill="#111111"/>
  <rect x="80" y="112" width="8" height="8" fill="#111111"/>
  <rect x="96" y="112" width="8" height="8" fill="#111111"/>
  <rect x="112" y="112" width="8" height="8" fill="#111111"/>
  <rect x="128" y="112" width="8" height="8" fill="#111111"/>
  <rect x="144" y="112" width="8" height="8" fill="#111111"/>
  <rect x="80" y="128" width="8" height="8" fill="#111111"/>
  <rect x="96" y="128" width="8" height="8" fill="#111111"/>
  <rect x="112" y="128" width="8" height="8" fill="#111111"/>
  <rect x="128" y="128" width="8" height="8" fill="#111111"/>
  <rect x="144" y="128" width="8" height="8" fill="#111111"/>
  <rect x="160" y="128" width="8" height="8" fill="#111111"/>
  <rect x="72" y="144" width="8" height="8" fill="#111111"/>
  <rect x="88" y="144" width="8" height="8" fill="#111111"/>
  <rect x="104" y="144" width="8" height="8" fill="#111111"/>
  <rect x="120" y="144" width="8" height="8" fill="#111111"/>
  <rect x="136" y="144" width="8" height="8" fill="#111111"/>
  <rect x="152" y="144" width="8" height="8" fill="#111111"/>
  <rect x="80" y="160" width="8" height="8" fill="#111111"/>
  <rect x="96" y="160" width="8" height="8" fill="#111111"/>
  <rect x="112" y="160" width="8" height="8" fill="#111111"/>
  <rect x="128" y="160" width="8" height="8" fill="#111111"/>
  <rect x="144" y="160" width="8" height="8" fill="#111111"/>
  <circle cx="96" cy="96" r="18" fill="#07C160"/>
  <path d="M87 93.5C87 88.8056 90.8056 85 95.5 85C98.2238 85 100.648 86.2809 102.205 88.2743C103.305 87.4916 104.651 87 106.111 87C109.853 87 112.889 90.0361 112.889 93.7778C112.889 99.6833 106.444 103.833 96 109C85.5556 103.833 79.1111 99.6833 79.1111 93.7778C79.1111 90.0361 82.1472 87 85.8889 87C86.2878 87 86.6787 87.0345 87.0586 87.1007C87.0201 87.3767 87 87.659 87 87.946V93.5Z" fill="white"/>
</svg>
